<svg width="115" height="120" viewBox="0 0 115 120" fill="none" xmlns="http://www.w3.org/2000/svg">
<path d="M10.3423 0.0163574C14.908 0.507725 19.809 7.13614 21.689 10.3894C28.7551 9.46125 34.4627 10.0027 36.4331 10.3894C39.7624 5.6121 45.8099 0.220415 49.6147 1.38062C53.4192 2.54144 52.5356 14.8262 52.5356 17.8972C52.5356 20.968 52.276 21.3898 53.4194 24.6531C58.3638 38.7639 52.5965 43.1223 51.9927 44.7185C51.6374 45.6575 50.837 46.9709 55.3892 50.7927C59.9414 54.6146 64.4942 53.6586 76.8599 66.4207C87.3966 77.71 88.1974 98.1184 87.272 107.075C87.2636 107.156 87.338 107.217 87.4175 107.2C98.0479 104.948 103.674 94.97 99.145 85.7351C95.5035 78.31 100.255 75.0429 103.086 74.3376C107.911 73.0412 117.558 81.3676 114.365 99.5212C110.451 116.065 94.389 120.064 86.8472 119.996H47.2358C46.1491 119.996 46.013 119.995 45.6733 119.654C43.0006 111.707 49.0913 108.917 52.6323 108.481C52.7168 108.471 52.7624 108.377 52.7231 108.302C45.9634 95.329 55.018 84.5638 60.7349 80.5251C60.835 80.4544 60.7748 80.2999 60.6528 80.3123C53.4847 81.0376 48.4854 87.9399 46.4214 92.2869C44.7556 95.7953 40.5613 111.866 38.606 119.727C38.566 119.888 38.423 119.996 38.2573 119.996H29.2993C29.0998 119.996 23.7552 120.061 23.3394 119.679C23.3229 119.664 23.317 119.642 23.311 119.621C21.7099 113.848 25.7206 111.07 28.1567 110.311C28.3097 110.264 28.4184 110.125 28.4214 109.965C28.6302 98.8605 25.5596 89.2313 23.8628 85.4812C23.8168 85.3796 23.6768 85.3925 23.6548 85.5017C23.0142 88.6803 22.8909 101.228 22.9116 107.374C22.9118 107.415 22.8913 107.452 22.8569 107.474C18.5839 110.262 17.7065 116.263 17.7983 119.273C17.8046 119.481 17.6401 119.654 17.4321 119.654H4.77588C4.64687 119.654 4.5252 119.583 4.46338 119.469C1.41512 113.886 6.3656 109.812 9.25537 108.462C9.39125 103.889 9.18709 93.4473 7.28467 88.2605C-0.596782 70.3796 3.14012 54.8868 3.61572 53.3171C4.07193 51.8113 4.27861 49.5518 3.69482 47.322C3.64546 47.1336 3.55954 46.9543 3.45361 46.7908C-3.0549 36.7448 1.10373 25.0471 4.02393 20.4216C3.34465 16.1896 4.63543 -0.597243 10.3423 0.0163574ZM29.4507 36.9998C28.907 36.816 27.7737 36.4592 26.688 36.6589C26.4975 36.6941 26.3597 36.8579 26.3569 37.0515C26.3402 38.3616 26.9803 40.7969 29.7046 42.3201C29.8686 42.4117 30.0718 42.3928 30.2134 42.2693C31.2599 41.3551 32.9307 39.3656 33.0337 37.1404C33.0442 36.9058 32.8631 36.712 32.6284 36.7029C31.7334 36.6683 30.442 36.7943 29.7915 36.9968C29.6803 37.0314 29.561 37.037 29.4507 36.9998ZM18.4946 26.9734C16.8063 26.9735 15.4373 28.5013 15.437 30.3855C15.437 32.27 16.8061 33.7984 18.4946 33.7986C20.1832 33.7985 21.5522 32.2701 21.5522 30.3855C21.552 28.5012 20.183 26.9735 18.4946 26.9734ZM40.5083 26.9734C38.8201 26.9736 37.451 28.5013 37.4507 30.3855C37.4507 32.27 38.8199 33.7983 40.5083 33.7986C42.1969 33.7986 43.5659 32.2701 43.5659 30.3855C43.5656 28.5012 42.1967 26.9734 40.5083 26.9734Z" fill="#111111"/>
</svg>
