<svg width="512" height="512" viewBox="0 0 512 512" fill="none" xmlns="http://www.w3.org/2000/svg">
<g clip-path="url(#clip0_4_38)">
<rect width="512" height="512" rx="152.702" fill="white"/>
<path d="M78.8281 147.436C76.3252 131.917 81.0812 70.3429 102.106 72.595C118.927 74.3972 136.983 98.7096 143.908 110.641C169.94 107.237 190.966 109.222 198.225 110.641C210.49 93.1196 232.766 73.346 246.783 77.6008C260.8 81.856 257.547 126.911 257.547 138.175C257.547 149.438 256.588 150.986 260.801 162.955C279.016 214.708 257.769 230.691 255.544 236.545C254.235 239.989 251.29 244.806 268.06 258.823C284.83 272.839 301.601 269.335 347.156 316.142C385.681 357.234 388.877 431.267 385.591 464.493C385.524 465.167 386.138 465.685 386.799 465.539C425.476 456.976 445.836 420.632 429.257 386.979C415.84 359.746 433.345 347.764 443.774 345.178C461.546 340.422 497.089 370.959 485.325 437.54C470.908 498.214 411.735 512.882 383.951 512.632H238.022C234.018 512.632 233.517 512.632 232.266 511.381C222.623 482.839 243.936 472.437 257.075 470.515C257.779 470.412 258.175 469.63 257.848 468.999C234.484 423.978 245.995 385.206 281.085 369.906C282.173 369.431 281.825 367.999 280.675 368.293C257.888 374.126 241.955 396.466 235.02 411.008C228.972 423.688 213.882 481.108 206.55 510.368C206.215 511.706 205.019 512.632 203.64 512.632H171.942C171.224 512.632 152.386 512.861 150.117 511.564C149.953 511.47 149.887 511.283 149.837 511.101C144.305 490.947 157.545 480.788 166.541 477.515C167.797 477.058 168.712 475.914 168.729 474.577C169.228 435.672 158.801 401.885 152.522 387.417C152.153 386.566 151.032 386.675 150.889 387.591C148.765 401.168 148.342 444.253 148.411 466.038C148.412 466.381 148.235 466.689 147.949 466.878C133.238 476.639 129.604 496.763 129.553 508.184C129.545 509.917 128.174 511.381 126.44 511.381H82.5654C81.4921 511.381 80.4857 510.804 79.9961 509.849C69.7257 489.81 87.6041 475.213 98.1016 470.33C98.6022 453.56 97.8513 415.263 90.8428 396.24C61.8076 330.66 75.574 273.84 77.3262 268.083C78.9153 262.862 79.6812 255.169 77.9424 247.434C77.5852 245.845 76.848 244.364 75.9834 242.984C53.07 206.404 68.1831 164.222 78.8281 147.436ZM171.711 207.976C169.827 207.379 166.848 206.597 163.803 206.803C162.189 206.912 161.028 208.309 161.16 209.921C161.55 214.686 164.111 221.981 172.211 227.026C173.535 227.85 175.237 227.678 176.364 226.599C179.867 223.246 184.484 217.331 185.512 210.644C185.809 208.707 184.273 207.092 182.314 207.131C179.659 207.185 176.604 207.516 174.564 208.006C173.624 208.232 172.633 208.268 171.711 207.976ZM132.139 171.464C125.918 171.464 120.875 177.068 120.875 183.98C120.875 190.891 125.918 196.494 132.139 196.494C138.359 196.494 143.402 190.891 143.402 183.98C143.402 177.068 138.359 171.464 132.139 171.464ZM213.241 171.463C207.02 171.463 201.977 177.067 201.977 183.979C201.977 190.891 207.021 196.493 213.241 196.493C219.462 196.493 224.505 190.89 224.505 183.979C224.505 177.067 219.462 171.464 213.241 171.463Z" fill="#0A0A0A"/>
</g>
<defs>
<clipPath id="clip0_4_38">
<rect width="512" height="512" rx="152.702" fill="white"/>
</clipPath>
</defs>
</svg>
